<?xml version="1.0" encoding="utf-8"?>
<!-- Generator: Adobe Illustrator 24.3.0, SVG Export Plug-In . SVG Version: 6.00 Build 0)  -->
<svg version="1.1" id="Layer_1" xmlns="http://www.w3.org/2000/svg" xmlns:xlink="http://www.w3.org/1999/xlink" x="0px" y="0px"
	 viewBox="0 0 216 101.1" style="enable-background:new 0 0 216 101.1;" xml:space="preserve">
<style type="text/css">
	.st0{opacity:0.43;fill:url(#SVGID_1_);}
	.st1{opacity:0.43;fill:url(#SVGID_2_);}
	.st2{opacity:0.42;fill:#E6E7E8;}
	.st3{fill:#3A3A3A;}
	.st4{fill:url(#SVGID_3_);}
</style>
<linearGradient id="SVGID_1_" gradientUnits="userSpaceOnUse" x1="27.8723" y1="80.7692" x2="88.2274" y2="20.4142">
	<stop  offset="0" style="stop-color:#EC297B"/>
	<stop  offset="0.2263" style="stop-color:#90278E"/>
	<stop  offset="0.2956" style="stop-color:#80298F"/>
	<stop  offset="0.4302" style="stop-color:#652D90"/>
	<stop  offset="0.4578" style="stop-color:#5F3998"/>
	<stop  offset="0.6039" style="stop-color:#4075BF"/>
	<stop  offset="0.7115" style="stop-color:#2D9BD7"/>
	<stop  offset="0.7682" style="stop-color:#26A9E0"/>
	<stop  offset="0.986" style="stop-color:#00ADEE"/>
</linearGradient>
<rect x="27.9" y="20.4" class="st0" width="60.4" height="60.4"/>
<linearGradient id="SVGID_2_" gradientUnits="userSpaceOnUse" x1="126.5351" y1="80.7692" x2="186.8901" y2="20.4142">
	<stop  offset="0" style="stop-color:#EC297B"/>
	<stop  offset="0.2263" style="stop-color:#90278E"/>
	<stop  offset="0.2956" style="stop-color:#80298F"/>
	<stop  offset="0.4302" style="stop-color:#652D90"/>
	<stop  offset="0.4578" style="stop-color:#5F3998"/>
	<stop  offset="0.6039" style="stop-color:#4075BF"/>
	<stop  offset="0.7115" style="stop-color:#2D9BD7"/>
	<stop  offset="0.7682" style="stop-color:#26A9E0"/>
	<stop  offset="0.986" style="stop-color:#00ADEE"/>
</linearGradient>
<rect x="126.5" y="20.4" class="st1" width="60.4" height="60.4"/>
<path class="st2" d="M173.5,33.9c-1.1-0.4-2.3-0.7-3.7-1c-4.6-0.8-8.6-0.3-11.3,0.2l0.4,2.6l3.2,23.4c-1.5-0.7-3.5-1-5.6-0.7
	c-4.2,0.6-7.3,3.3-6.9,6.1c0.4,2.8,4.1,4.6,8.3,4s7.3-3.3,6.9-6.1L161,35.2c1.3-0.4,2.7-0.7,4.3-0.9
	C168.6,33.8,171.4,33.8,173.5,33.9z"/>
<path class="st2" d="M70,33.9c-1.1-0.4-2.3-0.7-3.7-1c-4.6-0.8-8.6-0.3-11.3,0.2l0.4,2.6l3.2,23.4c-1.5-0.7-3.5-1-5.6-0.7
	c-4.2,0.6-7.3,3.3-6.9,6.1c0.4,2.8,4.1,4.6,8.3,4s7.3-3.3,6.9-6.1l-3.8-27.3c1.3-0.4,2.7-0.7,4.3-0.9C65.1,33.8,67.9,33.8,70,33.9z"
	/>
<rect x="66.5" y="10.4" class="st3" width="80.5" height="80.5"/>
<linearGradient id="SVGID_3_" gradientUnits="userSpaceOnUse" x1="81.9576" y1="56.3796" x2="130.804" y2="43.2913" gradientTransform="matrix(0.9907 -0.136 0.136 0.9907 -3.872 12.537)">
	<stop  offset="0" style="stop-color:#EC297B"/>
	<stop  offset="0.2027" style="stop-color:#BA4A95"/>
	<stop  offset="0.4803" style="stop-color:#7B72B5"/>
	<stop  offset="0.7155" style="stop-color:#4D90CC"/>
	<stop  offset="0.8959" style="stop-color:#31A2DB"/>
	<stop  offset="1" style="stop-color:#26A9E0"/>
</linearGradient>
<path class="st4" d="M125.9,24.1c-1.6-0.6-3.5-1.1-5.5-1.4c-6.8-1.3-12.9-0.5-16.8,0.3l0.5,3.9l4.8,34.9c-2.2-1.1-5.2-1.5-8.3-1.1
	c-6.2,0.9-10.8,4.9-10.2,9c0.6,4.1,6.1,6.8,12.3,5.9c6.2-0.9,10.8-4.9,10.2-9l-5.6-40.7c1.9-0.5,4-1,6.4-1.4
	C118.6,23.8,122.8,23.9,125.9,24.1z"/>
</svg>
