<?xml version="1.0" encoding="utf-8"?>
<!-- Generator: Adobe Illustrator 25.0.0, SVG Export Plug-In . SVG Version: 6.00 Build 0)  -->
<svg version="1.1" id="Layer_1" xmlns="http://www.w3.org/2000/svg" xmlns:xlink="http://www.w3.org/1999/xlink" x="0px" y="0px"
	 viewBox="0 0 150.5 101.1" style="enable-background:new 0 0 150.5 101.1;" xml:space="preserve">
<style type="text/css">
	.st0{display:none;}
	.st1{fill:#494949;}
	.st2{fill:none;stroke:url(#SVGID_1_);stroke-width:4;stroke-miterlimit:10;}
	.st3{opacity:0.4;fill:none;stroke:#FFFFFF;stroke-width:4;stroke-miterlimit:10;}
</style>
<g id="Layer_1_1_" class="st0">
</g>
<g id="Layer_2_1_">
	<path class="st1" d="M46.4,97.7L46.4,97.7c-2.4,0-4.3-1.9-4.3-4.3V42.8c0-2.4,1.9-4.3,4.3-4.3l0,0c2.4,0,4.3,1.9,4.3,4.3v50.7
		C50.7,95.8,48.7,97.7,46.4,97.7z"/>
	<path class="st1" d="M104,97.7L104,97.7c-2.4,0-4.3-1.9-4.3-4.3V42.8c0-2.4,1.9-4.3,4.3-4.3l0,0c2.4,0,4.3,1.9,4.3,4.3v50.7
		C108.3,95.8,106.4,97.7,104,97.7z"/>
	<path class="st1" d="M142.5,67.6c0,14.3-11.8,26.2-27.2,28.6c-2,0.3-3.8-1-3.8-2.8V46.2c0.2-1.3,0.3-2.5,0.3-3.8s-0.1-2.5-0.3-3.8
		C109.4,22.8,94,10.5,75.4,10.5c-19.2,0-34.9,13.1-36.2,29.7c-0.1,0.8-0.1,1.5-0.1,2.3s0,1.5,0.1,2.3v48.8c0,1.8-1.8,3.1-3.8,2.8
		C19.8,93.8,8.1,81.9,8.1,67.6c0-12.5,8.9-23.1,21.5-27.3C30.7,19,50.8,2,75.3,2c24.6,0,44.7,17,45.8,38.4
		C133.6,44.6,142.5,55.2,142.5,67.6z"/>
	<linearGradient id="SVGID_1_" gradientUnits="userSpaceOnUse" x1="56.7241" y1="60.0093" x2="95.7457" y2="82.5385">
		<stop  offset="0" style="stop-color:#262262"/>
		<stop  offset="9.700504e-02" style="stop-color:#2C5589"/>
		<stop  offset="0.1814" style="stop-color:#2F7EB1"/>
		<stop  offset="0.2418" style="stop-color:#2B9CD1"/>
		<stop  offset="0.2725" style="stop-color:#27AAE1"/>
		<stop  offset="0.6099" style="stop-color:#DA1C5C"/>
		<stop  offset="0.8876" style="stop-color:#9E1F63"/>
		<stop  offset="1" style="stop-color:#662D91"/>
	</linearGradient>
	<path class="st2" d="M53.1,78.1h3.3c1.6,0,2.9-1.5,2.9-3.4V60.6c0-1.9,1.3-3.4,2.9-3.4h0.4c1.6,0,2.9,1.5,2.9,3.4v30.7
		c0,1.9,1.3,3.4,2.9,3.4h0.4c1.8,0,3.2-1.7,3.2-3.8V46.3c0-1.9,1.3-3.4,2.9-3.4h0.6c1.6,0,2.9,1.5,2.9,3.4v22.8
		c0,1.9,1.3,3.4,2.9,3.4l0,0c1.9,0,3.5-1.8,3.5-4.1v-6.2c0-1.9,1.3-3.4,2.9-3.4l0,0c1.6,0,2.9,1.5,2.9,3.4v11.9
		c0,1.9,1.3,3.4,2.9,3.4h4"/>
	<path class="st3" d="M53.1,78.1h3.3c1.6,0,2.9-1.5,2.9-3.4V60.6c0-1.9,1.3-3.4,2.9-3.4h0.4c1.6,0,2.9,1.5,2.9,3.4v30.7
		c0,1.9,1.3,3.4,2.9,3.4h0.4c1.8,0,3.2-1.7,3.2-3.8V46.3c0-1.9,1.3-3.4,2.9-3.4h0.6c1.6,0,2.9,1.5,2.9,3.4v22.8
		c0,1.9,1.3,3.4,2.9,3.4l0,0c1.9,0,3.5-1.8,3.5-4.1v-6.2c0-1.9,1.3-3.4,2.9-3.4l0,0c1.6,0,2.9,1.5,2.9,3.4v11.9
		c0,1.9,1.3,3.4,2.9,3.4h4"/>
</g>
</svg>
