<?xml version="1.0" encoding="utf-8"?>
<!-- Generator: Adobe Illustrator 24.3.0, SVG Export Plug-In . SVG Version: 6.00 Build 0)  -->
<svg version="1.1" id="Layer_1" xmlns="http://www.w3.org/2000/svg" xmlns:xlink="http://www.w3.org/1999/xlink" x="0px" y="0px"
	 viewBox="0 0 216 104.3" style="enable-background:new 0 0 216 104.3;" xml:space="preserve">
<style type="text/css">
	.st0{fill:#FFFFFF;}
</style>
<g>
	<g>
		<rect x="31.7" y="40.2" class="st0" width="1.4" height="5"/>
		<rect x="28.6" y="41.1" class="st0" width="1.4" height="3.3"/>
		<rect x="54.4" y="40.4" class="st0" width="1.4" height="4.7"/>
		<rect x="57.6" y="40.4" class="st0" width="1.4" height="4.7"/>
		<rect x="60.8" y="41" class="st0" width="1.4" height="3.3"/>
		<rect x="64.1" y="41.9" class="st0" width="1.4" height="1.5"/>
		<rect x="67.3" y="42.3" class="st0" width="1.4" height="0.9"/>
		<rect x="35.1" y="39.4" class="st0" width="1.4" height="6.6"/>
		<rect x="38.3" y="36.8" class="st0" width="1.4" height="11.9"/>
		<rect x="41.6" y="31.3" class="st0" width="1.4" height="22.7"/>
		<rect x="44.8" y="33.2" class="st0" width="1.4" height="18.9"/>
		<rect x="48" y="36" class="st0" width="1.4" height="13.3"/>
		<rect x="51.2" y="38.7" class="st0" width="1.4" height="8"/>
	</g>
	<g>
		<path class="st0" d="M9,17.8L18.4,34l1,1.7l0.8,1.4l1.4,2.4l1.7,3l2.8,4.8l1.6,2.7l1.9,3.3l1.5,2.6l1.2,2.2l15.3,26.5l15.3-26.5
			l1.7-3l1.8-3.1l0.5-0.8l1.8-3.2l0.8-1.4l2-3.5l0.8-1.4l13.8-23.9L9,17.8L9,17.8z M68.2,34L67.7,35l-2.4,4.2h0l-2.9,5l-0.9,1.6
			L61,46.4l-2.3,4l-0.1,0.1L57.9,52l-1.3,2.2L54.3,58l-6.8,11.8L40.7,58l-1.8-3.1l-1.2-2l-1.7-3l-1.4-2.4l-1.1-2h0l-2.2-3.8
			l-1.9-3.2l-0.2-0.4l-1.7-3L26.9,34l-4.5-7.8h50.3L68.2,34z"/>
	</g>
</g>
<g>
	<path class="st0" d="M111.8,43.9l-7.3,16.6h-1.7l-7.3-16.6h1.9l6.3,14.4l6.4-14.4L111.8,43.9L111.8,43.9z"/>
	<path class="st0" d="M118.9,43.9h1.7v16.6h-1.7V43.9z"/>
	<path class="st0" d="M144.6,56.1c0,2.8-2.1,4.4-6.2,4.4h-7.6V43.9h7.1c3.7,0,5.8,1.6,5.8,4.3c0,1.9-1,3.1-2.5,3.8
		C143.3,52.4,144.6,53.8,144.6,56.1z M132.5,45.4v6h5.3c2.7,0,4.2-1,4.2-3c0-2-1.5-3-4.2-3L132.5,45.4L132.5,45.4z M142.8,55.9
		c0-2.2-1.6-3.1-4.5-3.1h-5.8v6.2h5.8C141.3,59.1,142.8,58.1,142.8,55.9z"/>
	<path class="st0" d="M164.6,60.5l-3.8-5.3c-0.4,0-0.8,0.1-1.3,0.1h-4.4v5.2h-1.7V43.9h6.2c4.2,0,6.8,2.1,6.8,5.7
		c0,2.6-1.4,4.4-3.8,5.2l4,5.7L164.6,60.5L164.6,60.5z M164.5,49.6c0-2.7-1.7-4.2-5.1-4.2h-4.4v8.3h4.4
		C162.8,53.8,164.5,52.2,164.5,49.6z"/>
	<path class="st0" d="M185.5,56.1h-9.2l-2,4.4h-1.8l7.6-16.6h1.7l7.6,16.6h-1.8L185.5,56.1z M184.9,54.7l-4-8.9l-4,8.9H184.9z"/>
	<path class="st0" d="M195.2,58.5l0.7-1.3c1.2,1.2,3.3,2,5.5,2c3.1,0,4.4-1.3,4.4-2.9c0-4.5-10.2-1.7-10.2-7.9
		c0-2.4,1.9-4.5,6.1-4.5c1.9,0,3.8,0.5,5.1,1.5l-0.6,1.4c-1.4-0.9-3.1-1.4-4.5-1.4c-3,0-4.4,1.3-4.4,3c0,4.5,10.2,1.8,10.2,7.8
		c0,2.4-1.9,4.5-6.2,4.5C198.9,60.6,196.5,59.8,195.2,58.5z"/>
</g>
</svg>
