<?xml version="1.0" encoding="utf-8"?>
<!-- Generator: Adobe Illustrator 24.3.0, SVG Export Plug-In . SVG Version: 6.00 Build 0)  -->
<svg version="1.1" id="Layer_1" xmlns="http://www.w3.org/2000/svg" xmlns:xlink="http://www.w3.org/1999/xlink" x="0px" y="0px"
	 viewBox="0 0 216 216" style="enable-background:new 0 0 216 216;" xml:space="preserve">
<style type="text/css">
	.st0{fill:#FFFFFF;}
</style>
<g>
	<g>
		<rect x="81.46" y="52.38" class="st0" width="2.26" height="7.96"/>
		<rect x="76.48" y="53.73" class="st0" width="2.26" height="5.26"/>
		<rect x="117.83" y="52.61" class="st0" width="2.26" height="7.49"/>
		<rect x="123" y="52.61" class="st0" width="2.26" height="7.49"/>
		<rect x="128.12" y="53.71" class="st0" width="2.26" height="5.28"/>
		<rect x="133.4" y="55.12" class="st0" width="2.26" height="2.47"/>
		<rect x="138.53" y="55.67" class="st0" width="2.26" height="1.37"/>
		<rect x="86.85" y="51.05" class="st0" width="2.26" height="10.61"/>
		<rect x="92.02" y="46.85" class="st0" width="2.26" height="19.01"/>
		<rect x="97.27" y="38.17" class="st0" width="2.26" height="36.36"/>
		<rect x="102.43" y="41.2" class="st0" width="2.26" height="30.31"/>
		<rect x="107.46" y="45.68" class="st0" width="2.26" height="21.36"/>
		<rect x="112.7" y="49.92" class="st0" width="2.26" height="12.87"/>
	</g>
	<g>
		<path class="st0" d="M45.02,16.4l15.05,26.1l1.6,2.73l1.26,2.21l2.26,3.91l2.76,4.75l4.44,7.69l2.52,4.39l3.02,5.23l2.36,4.1
			l2,3.47l24.53,42.46l24.53-42.46l2.73-4.75l2.86-4.96l0.76-1.31l2.94-5.09l1.31-2.26l3.23-5.62l1.31-2.26l22.11-38.31H45.02z
			 M139.91,42.5l-0.84,1.5l-3.86,6.7h-0.03l-4.65,8.09l-1.47,2.49l-0.63,1.1l-3.68,6.38l-0.13,0.24l-1.29,2.23l-2.05,3.54l-3.6,6.2
			l-10.9,18.91l-10.9-18.91l-2.91-5.02l-1.89-3.26l-2.7-4.73l-2.18-3.78l-1.84-3.18h-0.03l-3.54-6.14l-2.97-5.17l-0.37-0.66
			l-2.76-4.73l-1.02-1.81L66.47,30h80.67L139.91,42.5z"/>
	</g>
</g>
<g>
	<path class="st0" d="M44.86,161.83l-11.75,26.53h-2.77l-11.75-26.53h3.03l10.16,23.04l10.23-23.04H44.86z"/>
	<path class="st0" d="M56.27,161.83h2.8v26.53h-2.8V161.83z"/>
	<path class="st0" d="M97.47,181.27c0,4.51-3.34,7.09-9.97,7.09H75.29v-26.53h11.45c5.91,0,9.32,2.5,9.32,6.82
		c0,3.03-1.63,5.04-4.06,6.03C95.42,175.43,97.47,177.67,97.47,181.27z M78.1,164.14v9.63h8.45c4.25,0,6.71-1.63,6.71-4.81
		s-2.46-4.81-6.71-4.81H78.1z M94.66,181.04c0-3.45-2.54-4.96-7.2-4.96H78.1v9.97h9.36C92.12,186.04,94.66,184.53,94.66,181.04z"/>
	<path class="st0" d="M129.57,188.36l-6.06-8.53c-0.68,0.08-1.36,0.11-2.12,0.11h-7.13v8.41h-2.8v-26.53h9.93
		c6.75,0,10.84,3.41,10.84,9.1c0,4.17-2.2,7.09-6.06,8.34l6.48,9.1H129.57z M129.42,170.92c0-4.25-2.8-6.67-8.11-6.67h-7.05v13.3
		h7.05C126.61,177.55,129.42,175.09,129.42,170.92z"/>
	<path class="st0" d="M163.07,181.27h-14.78l-3.18,7.09h-2.92l12.13-26.53h2.77l12.13,26.53h-2.96L163.07,181.27z M162.05,179
		l-6.37-14.25L149.32,179H162.05z"/>
	<path class="st0" d="M178.65,185.14l1.1-2.16c1.89,1.86,5.27,3.22,8.75,3.22c4.97,0,7.13-2.08,7.13-4.7
		c0-7.28-16.34-2.8-16.34-12.62c0-3.9,3.03-7.28,9.78-7.28c2.99,0,6.1,0.87,8.22,2.35l-0.95,2.24c-2.27-1.48-4.93-2.2-7.28-2.2
		c-4.85,0-7.01,2.16-7.01,4.81c0,7.28,16.34,2.88,16.34,12.55c0,3.9-3.11,7.24-9.89,7.24C184.53,188.58,180.62,187.18,178.65,185.14
		z"/>
</g>
</svg>
